<svg width="192" height="64" viewBox="0 0 192 64" fill="none" xmlns="http://www.w3.org/2000/svg">
<path d="M164.475 53.1444H163.215C160.217 53.1444 157.779 50.706 157.779 47.7076V45.9691C156.641 46.3936 155.444 46.6058 154.209 46.6058C148.549 46.6058 143.945 41.9999 143.945 36.3418C143.945 30.6837 148.551 26.0778 154.209 26.0778C156.903 26.0778 159.445 27.1141 161.373 28.9926C163.157 30.7334 164.231 33.0183 164.435 35.4815H164.466L164.473 36.3418V53.1444H164.475ZM158.971 44.1267V47.7099C158.971 50.0512 160.874 51.9546 163.215 51.9546H163.283V36.2605L163.276 36.0934C163.213 33.7227 162.24 31.5033 160.542 29.8438C158.84 28.182 156.591 27.2676 154.209 27.2676C149.206 27.2676 145.135 31.3385 145.135 36.3418C145.135 41.3451 149.206 45.4159 154.209 45.4159C155.577 45.4159 156.891 45.1179 158.117 44.5331L158.971 44.1267ZM154.211 41.1103C151.581 41.1103 149.443 38.9721 149.443 36.3418C149.443 33.7114 151.581 31.5733 154.211 31.5733C156.779 31.5733 158.869 33.585 158.971 36.1521V36.1747V36.5314C158.869 39.0986 156.779 41.1103 154.211 41.1103ZM154.211 32.7654C152.238 32.7654 150.633 34.3707 150.633 36.344C150.633 38.3174 152.238 39.9227 154.211 39.9227C156.133 39.9227 157.7 38.419 157.781 36.4998V36.1905C157.697 34.2668 156.133 32.7654 154.211 32.7654Z" fill="#ED4C3B"/>
<path d="M175.717 46.6081C170.057 46.6081 165.453 42.0021 165.453 36.344C165.453 30.686 170.059 26.08 175.717 26.08C181.377 26.08 185.981 30.686 185.981 36.344C185.981 42.0021 181.377 46.6081 175.717 46.6081ZM175.717 27.2676C170.714 27.2676 166.643 31.3385 166.643 36.3418C166.643 41.3451 170.714 45.4159 175.717 45.4159C180.72 45.4159 184.791 41.3451 184.791 36.3418C184.791 31.3385 180.72 27.2676 175.717 27.2676ZM175.717 41.1103C173.087 41.1103 170.948 38.9721 170.948 36.3418C170.948 33.7114 173.087 31.5733 175.717 31.5733C178.347 31.5733 180.485 33.7114 180.485 36.3418C180.485 38.9721 178.345 41.1103 175.717 41.1103ZM175.717 32.7654C173.744 32.7654 172.138 34.3707 172.138 36.344C172.138 38.3174 173.744 39.9227 175.717 39.9227C177.69 39.9227 179.295 38.3174 179.295 36.344C179.293 34.3684 177.69 32.7654 175.717 32.7654Z" fill="#ED4C3B"/>
<path d="M35.4269 20.6206H42.7377C44.5732 20.6206 46.2553 20.8261 47.7883 21.2347C49.2852 21.6321 50.5067 22.323 51.4527 23.3029C52.3762 24.2625 52.839 25.5426 52.839 27.1434C52.839 28.3604 52.5342 29.417 51.9269 30.3179C51.3195 31.2301 50.4954 31.9074 49.4546 32.3522V32.4403C50.0506 32.6751 50.606 32.9889 51.1208 33.3863C51.6108 33.7724 52.051 34.233 52.4349 34.7726C52.7961 35.2874 53.0828 35.8654 53.2951 36.5088C53.4938 37.1636 53.5931 37.8522 53.5931 38.577C53.5931 40.6587 52.8209 42.3295 51.2789 43.5916C49.7233 44.865 47.3752 45.504 44.2301 45.504H35.4269V20.6206ZM41.8278 25.4952V30.5279H43.4398C44.4333 30.5279 45.1806 30.2999 45.6841 29.8438C46.1876 29.4125 46.4382 28.7803 46.4382 27.9495C46.4382 27.0734 46.1221 26.4413 45.4922 26.0552C44.8487 25.6804 44.0901 25.493 43.2118 25.493H41.8278V25.4952ZM41.8278 35.4206V40.6113H43.5279C45.9708 40.6113 47.1923 39.7646 47.1923 38.069C47.1923 37.0056 46.8649 36.2989 46.2101 35.9466C45.5667 35.5967 44.6432 35.4206 43.4398 35.4206H41.8278Z" fill="white"/>
<path d="M63.6764 32.228C63.3851 32.0294 63.0036 31.9187 62.5362 31.8939H62.2201C60.7932 31.9526 60.082 32.946 60.082 34.8742V45.4995H54.4714V34.8742C54.4714 29.7648 57.0543 27.0825 62.2224 26.8251H62.5385C62.9245 26.8364 63.3039 26.8725 63.6787 26.9312V32.228H63.6764Z" fill="white"/>
<path d="M79.5441 44.9756C79.1693 45.1405 78.8961 45.2511 78.72 45.3098C77.4805 45.7885 76.1823 46.0278 74.8276 46.0278C73.0394 46.0278 71.3506 45.6124 69.7611 44.7837C68.1716 43.9416 66.9095 42.7969 65.9748 41.3473C65.0288 39.8752 64.5547 38.2316 64.5547 36.4208C64.5547 35.0526 64.8301 33.7791 65.3788 32.5983C65.9274 31.4288 66.6815 30.4127 67.6411 29.548C68.5871 28.6833 69.6866 28.0217 70.9374 27.5656C72.1882 27.087 73.4865 26.8477 74.8299 26.8477C76.162 26.8477 77.4602 27.0825 78.7223 27.5498C79.9844 28.0172 81.0839 28.6833 82.0187 29.548C83.0008 30.4376 83.7594 31.4536 84.299 32.5983C84.8477 33.7791 85.1231 35.0526 85.1231 36.4208L85.1051 45.5559L79.5464 45.504V44.9756H79.5441ZM70.7952 34.1562C70.3617 34.8471 70.1472 35.6012 70.1472 36.4185C70.1472 37.6581 70.6146 38.7283 71.5493 39.6269C72.4727 40.5165 73.5655 40.959 74.8276 40.959C76.101 40.959 77.2005 40.5142 78.124 39.6269C79.0587 38.726 79.5261 37.6581 79.5261 36.4185C79.5261 35.6012 79.3093 34.8471 78.8781 34.1562C78.4446 33.4676 77.8666 32.9167 77.1418 32.508C76.4284 32.1106 75.6562 31.9119 74.8276 31.9119C74.0216 31.9119 73.2562 32.1106 72.5314 32.508C71.8044 32.9189 71.2264 33.4676 70.7952 34.1562Z" fill="white"/>
<path d="M94.4636 31.9119C93.0367 31.9707 92.3254 32.9641 92.3254 34.8923V45.5017H86.7148V34.8923C86.7148 29.7851 89.2978 27.1005 94.4658 26.8432H94.7819C99.9477 27.1005 102.533 29.7828 102.533 34.8923V45.5017H96.9223V34.8923C96.9223 32.9641 96.2088 31.9707 94.7842 31.9119H94.4636Z" fill="white"/>
<path d="M123.975 36.5585C123.964 38.3354 123.49 39.943 122.555 41.3812C121.62 42.842 120.358 43.989 118.769 44.8176C117.179 45.6598 115.49 46.0797 113.702 46.0797C112.334 46.0797 111.038 45.8404 109.81 45.3617C108.593 44.917 107.489 44.2464 106.495 43.3455C105.513 42.4446 104.752 41.4173 104.215 40.2591C103.678 39.1008 103.409 37.8274 103.409 36.4366C103.409 35.0819 103.684 33.813 104.233 32.6322C104.77 31.4626 105.524 30.4398 106.495 29.5638C107.477 28.6765 108.582 28.0037 109.81 27.5476C111.072 27.0915 112.37 26.8635 113.702 26.8635C115.023 26.8635 116.314 27.0915 117.577 27.5476L117.981 27.7237L118.385 27.8998V20.4987L123.977 20.5168V36.5585H123.975ZM118.383 36.4366C118.383 35.6193 118.166 34.8697 117.735 34.1923C117.301 33.5037 116.723 32.9528 115.998 32.5441C115.285 32.1355 114.519 31.93 113.702 31.93C112.885 31.93 112.113 32.1355 111.388 32.5441C110.663 32.9528 110.085 33.5037 109.652 34.1923C109.218 34.8697 109.004 35.6193 109.004 36.4366C109.004 37.6874 109.471 38.7621 110.406 39.663C111.329 40.5639 112.429 41.0132 113.702 41.0132C114.964 41.0132 116.057 40.5639 116.98 39.663C117.913 38.7621 118.383 37.6874 118.383 36.4366Z" fill="white"/>
<path d="M138.825 52.7064H143.038V36.2357H137.533V51.4149C137.535 52.1284 138.113 52.7064 138.825 52.7064Z" fill="white"/>
<path d="M137.581 27.2789V36.4908C137.581 38.796 136.705 40.6632 134.399 40.6632C132.094 40.6632 131.218 38.796 131.218 36.4908V27.2789H125.691V36.5766C125.691 41.9344 129.042 46.2762 134.399 46.2762C139.757 46.2762 143.108 41.9321 143.108 36.5766V27.2789H137.581Z" fill="white"/>
<path d="M26.0029 54.7046H25.1066C20.2072 54.7046 16.2199 50.7195 16.2199 45.8178L16.1861 29.4148L17.1163 29.3583C22.0157 29.3583 26.0029 33.3434 26.0029 38.2451V54.7046ZM18.0126 31.2052V45.8178C18.0126 49.4258 20.7197 52.4129 24.208 52.8554V38.2428C24.2102 34.6349 21.5032 31.6478 18.0126 31.2052Z" fill="white"/>
<path d="M17.9968 46.3661H17.1005C12.4675 46.3661 8.69925 42.5978 8.69925 37.9648V37.7638C8.69925 33.1308 12.4675 29.3625 17.1005 29.3625L18.0013 29.3963L17.9968 46.3661ZM16.2041 31.2184C12.9845 31.6564 10.4942 34.4245 10.4942 37.7638V37.9648C10.4942 41.3041 12.9845 44.0721 16.2041 44.5102V31.2184Z" fill="white"/>
<path d="M28.0846 42.6727V46.6035C30.0579 44.1922 31.2478 41.1171 31.2478 37.7665C31.2478 30.2976 25.3617 24.1767 17.9833 23.8041C17.3172 16.5001 11.5576 10.9007 4.52011 10.9007C3.97372 10.9007 3.53119 11.3704 3.53119 11.9461V34.7591C3.53119 34.8426 3.54474 34.9239 3.56055 35.0029C3.37992 35.897 3.2851 36.8204 3.2851 37.7665C3.2851 44.9689 8.76023 50.916 15.7661 51.6656C15.2627 50.8144 14.9195 49.9609 14.7163 49.3761C9.38112 48.2066 5.37806 43.4449 5.37806 37.7665C5.37806 31.2098 10.711 25.8768 17.2676 25.8768C23.8242 25.8768 29.1571 31.2098 29.1571 37.7665C29.1548 39.5163 28.7687 41.1758 28.0846 42.6727ZM5.50902 30.0199V13.0366C10.9661 13.5198 15.3259 17.9632 15.9852 23.7071C11.7044 24.0051 7.86389 26.3916 5.50902 30.0199Z" fill="#ED4C3B"/>
</svg>
