<svg width="24" height="24" viewBox="0 0 24 24" fill="none" xmlns="http://www.w3.org/2000/svg">
<path fill-rule="evenodd" clip-rule="evenodd" d="M10.7226 3.20073C10.8335 2.80163 10.5998 2.38822 10.2007 2.27736C9.80163 2.1665 9.38822 2.40016 9.27736 2.79927L7.76327 8.25H4C3.58579 8.25 3.25 8.58579 3.25 9C3.25 9.41421 3.58579 9.75 4 9.75H7.3466L5.81882 15.25H2C1.58579 15.25 1.25 15.5858 1.25 16C1.25 16.4142 1.58579 16.75 2 16.75H5.40216L4.27736 20.7993C4.1665 21.1984 4.40016 21.6118 4.79927 21.7226C5.19837 21.8335 5.61178 21.5998 5.72264 21.2007L6.95895 16.75H14.4022L13.2774 20.7993C13.1665 21.1984 13.4002 21.6118 13.7993 21.7226C14.1984 21.8335 14.6118 21.5998 14.7226 21.2007L15.959 16.75H20C20.4142 16.75 20.75 16.4142 20.75 16C20.75 15.5858 20.4142 15.25 20 15.25H16.3756L17.9034 9.75H22C22.4142 9.75 22.75 9.41421 22.75 9C22.75 8.58579 22.4142 8.25 22 8.25H18.3201L19.7226 3.20073C19.8335 2.80163 19.5998 2.38822 19.2007 2.27736C18.8016 2.1665 18.3882 2.40016 18.2774 2.79927L16.7633 8.25H9.32006L10.7226 3.20073ZM14.8188 15.25L16.3466 9.75H8.9034L7.37562 15.25H14.8188Z" fill="#ED4C3B"/>
</svg>
