<svg width="20" height="20" viewBox="0 0 20 20" fill="none" xmlns="http://www.w3.org/2000/svg">
<path d="M1.66667 5.17544C1.66667 3.52139 1.66667 2.69436 2.21585 2.18052C2.76502 1.66667 3.6489 1.66667 5.41667 1.66667C7.18444 1.66667 8.06832 1.66667 8.6175 2.18052C9.16667 2.69436 9.16667 3.52139 9.16667 5.17544V14.8246C9.16667 16.4786 9.16667 17.3056 8.6175 17.8195C8.06832 18.3333 7.18444 18.3333 5.41667 18.3333C3.6489 18.3333 2.76502 18.3333 2.21585 17.8195C1.66667 17.3056 1.66667 16.4786 1.66667 14.8246V5.17544Z" fill="#ED4C3B"/>
<path d="M10.8333 12.8333C10.8333 11.1049 10.8333 10.2406 11.3825 9.70364C11.9317 9.16667 12.8156 9.16667 14.5833 9.16667C16.3511 9.16667 17.235 9.16667 17.7842 9.70364C18.3333 10.2406 18.3333 11.1049 18.3333 12.8333V14.6667C18.3333 16.3952 18.3333 17.2594 17.7842 17.7964C17.235 18.3333 16.3511 18.3333 14.5833 18.3333C12.8156 18.3333 11.9317 18.3333 11.3825 17.7964C10.8333 17.2594 10.8333 16.3952 10.8333 14.6667V12.8333Z" fill="#ED4C3B"/>
<path d="M10.8333 4.58333C10.8333 3.67734 10.8333 3.22434 10.9761 2.86701C11.1664 2.39056 11.5314 2.01203 11.9908 1.81468C12.3354 1.66667 12.7722 1.66667 13.6458 1.66667H15.5208C16.3945 1.66667 16.8313 1.66667 17.1759 1.81468C17.6353 2.01203 18.0003 2.39056 18.1906 2.86701C18.3333 3.22434 18.3333 3.67734 18.3333 4.58333C18.3333 5.48933 18.3333 5.94233 18.1906 6.29966C18.0003 6.77611 17.6353 7.15464 17.1759 7.35199C16.8313 7.5 16.3945 7.5 15.5208 7.5H13.6458C12.7722 7.5 12.3354 7.5 11.9908 7.35199C11.5314 7.15464 11.1664 6.77611 10.9761 6.29966C10.8333 5.94233 10.8333 5.48933 10.8333 4.58333Z" fill="#ED4C3B"/>
</svg>
