<svg width="20" height="20" viewBox="0 0 20 20" fill="none" xmlns="http://www.w3.org/2000/svg">
<path fill-rule="evenodd" clip-rule="evenodd" d="M2.09932 6.51896C1.66666 7.3094 1.66666 8.26291 1.66666 10.1699V11.4375C1.66666 14.6882 1.66666 16.3136 2.64297 17.3235C3.61928 18.3333 5.19063 18.3333 8.33332 18.3333H11.6667C14.8094 18.3333 16.3807 18.3333 17.357 17.3235C18.3333 16.3136 18.3333 14.6882 18.3333 11.4375V10.1699C18.3333 8.26291 18.3333 7.3094 17.9007 6.51896C17.468 5.72851 16.6775 5.23793 15.0966 4.25678L13.43 3.2224C11.7588 2.18525 10.9233 1.66667 9.99999 1.66667C9.07671 1.66667 8.24115 2.18525 6.57002 3.2224L4.90335 4.25678C3.32244 5.23793 2.53199 5.72851 2.09932 6.51896ZM7.49999 14.375C7.15481 14.375 6.87499 14.6548 6.87499 15C6.87499 15.3452 7.15481 15.625 7.49999 15.625H12.5C12.8452 15.625 13.125 15.3452 13.125 15C13.125 14.6548 12.8452 14.375 12.5 14.375H7.49999Z" fill="#ED4C3B"/>
</svg>
