<svg width="16" height="16" viewBox="0 0 16 16" fill="none" xmlns="http://www.w3.org/2000/svg">
<path fill-rule="evenodd" clip-rule="evenodd" d="M2.16675 14.6667C2.16675 14.3905 2.39061 14.1667 2.66675 14.1667H13.3334C13.6096 14.1667 13.8334 14.3905 13.8334 14.6667C13.8334 14.9428 13.6096 15.1667 13.3334 15.1667H2.66675C2.39061 15.1667 2.16675 14.9428 2.16675 14.6667Z" fill="#2F5EC6"/>
<path d="M7.68012 9.95264L7.68014 9.95263L11.6246 6.00817C11.0878 5.78473 10.4519 5.41771 9.85056 4.81637C9.24912 4.21493 8.88208 3.57898 8.65865 3.04208L4.71412 6.98662L4.71409 6.98664C4.4063 7.29444 4.25239 7.44835 4.12003 7.61805C3.96389 7.81823 3.83002 8.03483 3.7208 8.26402C3.62821 8.4583 3.55938 8.66479 3.42171 9.07777L2.69579 11.2556C2.62804 11.4588 2.68094 11.6829 2.83242 11.8343C2.9839 11.9858 3.20796 12.0387 3.4112 11.971L5.58898 11.245C6.00196 11.1074 6.20845 11.0385 6.40274 10.946C6.63192 10.8367 6.84852 10.7029 7.0487 10.5467C7.2184 10.4144 7.37232 10.2604 7.68012 9.95264Z" fill="#2F5EC6"/>
<path d="M12.7191 4.91363C13.5382 4.09459 13.5382 2.76666 12.7191 1.94762C11.9001 1.12858 10.5722 1.12858 9.75312 1.94762L9.28003 2.4207C9.28651 2.44027 9.29323 2.4601 9.3002 2.48019C9.4736 2.98 9.80078 3.63521 10.4163 4.25068C11.0317 4.86615 11.6869 5.19333 12.1867 5.36673C12.2067 5.37367 12.2265 5.38036 12.246 5.38681L12.7191 4.91363Z" fill="#2F5EC6"/>
</svg>
