<svg width="64" height="64" viewBox="0 0 64 64" fill="none" xmlns="http://www.w3.org/2000/svg">
<path opacity="0.5" d="M8 27.7779C8 19.251 8 14.9876 9.00671 13.5533C10.0134 12.1189 14.0222 10.7467 22.0398 8.00228L23.5673 7.47941C27.7466 6.0488 29.8363 5.3335 32 5.3335C34.1637 5.3335 36.2534 6.0488 40.4327 7.47941L41.9602 8.00228C49.9778 10.7467 53.9866 12.1189 54.9933 13.5533C56 14.9876 56 19.251 56 27.7779V31.9771C56 47.012 44.6961 54.3081 37.6038 57.4062C35.68 58.2466 34.718 58.6668 32 58.6668C29.282 58.6668 28.32 58.2466 26.3962 57.4062C19.3039 54.3081 8 47.012 8 31.9771V27.7779Z" fill="#DB3827"/>
<path d="M31.9999 19.3335C33.1045 19.3335 33.9999 20.2289 33.9999 21.3335V32.0002C33.9999 33.1047 33.1045 34.0002 31.9999 34.0002C30.8954 34.0002 29.9999 33.1047 29.9999 32.0002V21.3335C29.9999 20.2289 30.8954 19.3335 31.9999 19.3335Z" fill="#DB3827"/>
<path d="M31.9999 42.6668C33.4727 42.6668 34.6666 41.4729 34.6666 40.0002C34.6666 38.5274 33.4727 37.3335 31.9999 37.3335C30.5272 37.3335 29.3333 38.5274 29.3333 40.0002C29.3333 41.4729 30.5272 42.6668 31.9999 42.6668Z" fill="#DB3827"/>
</svg>
