<svg width="20" height="20" viewBox="0 0 20 20" fill="none" xmlns="http://www.w3.org/2000/svg">
<g clip-path="url(#clip0_2_108)">
<path d="M1.66667 10.1699C1.66667 8.26291 1.66667 7.3094 2.09934 6.51896C2.53201 5.72851 3.32246 5.23793 4.90337 4.25678L6.57003 3.2224C8.24116 2.18525 9.07672 1.66667 10 1.66667C10.9233 1.66667 11.7588 2.18525 13.43 3.2224L15.0966 4.25678C16.6776 5.23793 17.468 5.72851 17.9007 6.51896C18.3333 7.3094 18.3333 8.26291 18.3333 10.1699V11.4375C18.3333 14.6882 18.3333 16.3136 17.357 17.3235C16.3807 18.3333 14.8094 18.3333 11.6667 18.3333H8.33334C5.19064 18.3333 3.61929 18.3333 2.64298 17.3235C1.66667 16.3136 1.66667 14.6882 1.66667 11.4375V10.1699Z" stroke="white" stroke-width="1.5"/>
<path d="M12.5 15H7.5" stroke="white" stroke-width="1.5" stroke-linecap="round"/>
</g>
<defs>
<clipPath id="clip0_2_108">
<rect width="20" height="20" fill="white"/>
</clipPath>
</defs>
</svg>
