<svg width="41" height="40" viewBox="0 0 41 40" fill="none" xmlns="http://www.w3.org/2000/svg">
<rect x="0.666626" width="40" height="40" rx="20" fill="#F7E3FF"/>
<path fill-rule="evenodd" clip-rule="evenodd" d="M12.766 16.519C12.3333 17.3094 12.3333 18.2629 12.3333 20.1699V21.4375C12.3333 24.6882 12.3333 26.3136 13.3096 27.3235C14.2859 28.3333 15.8573 28.3333 19 28.3333H22.3333C25.476 28.3333 27.0474 28.3333 28.0237 27.3235C29 26.3136 29 24.6882 29 21.4375V20.1699C29 18.2629 29 17.3094 28.5673 16.519C28.1346 15.7285 27.3442 15.2379 25.7633 14.2568L24.0966 13.2224C22.4255 12.1852 21.5899 11.6667 20.6666 11.6667C19.7434 11.6667 18.9078 12.1852 17.2367 13.2224L15.57 14.2568C13.9891 15.2379 13.1986 15.7285 12.766 16.519ZM18.1666 24.375C17.8215 24.375 17.5416 24.6548 17.5416 25C17.5416 25.3452 17.8215 25.625 18.1666 25.625H23.1666C23.5118 25.625 23.7916 25.3452 23.7916 25C23.7916 24.6548 23.5118 24.375 23.1666 24.375H18.1666Z" fill="#AE00FF"/>
</svg>
