<svg width="20" height="20" viewBox="0 0 20 20" fill="none" xmlns="http://www.w3.org/2000/svg">
<path d="M8.33335 3.33334H11.6667C14.8094 3.33334 16.3807 3.33334 17.357 4.30965C18.3334 5.28597 18.3334 6.85731 18.3334 10C18.3334 13.1427 18.3334 14.7141 17.357 15.6904C16.3807 16.6667 14.8094 16.6667 11.6667 16.6667H8.33335C5.19066 16.6667 3.61931 16.6667 2.643 15.6904C1.66669 14.7141 1.66669 13.1427 1.66669 10C1.66669 6.85731 1.66669 5.28597 2.643 4.30965C3.61931 3.33334 5.19066 3.33334 8.33335 3.33334Z" fill="#D1D1D1"/>
<path d="M5 6.66666L6.79908 8.16589C8.32961 9.44133 9.09488 10.0791 10 10.0791C10.9051 10.0791 11.6704 9.44133 13.2009 8.16589L15 6.66666" stroke="#F6F6F6" stroke-linecap="round"/>
</svg>
