<svg width="20" height="20" viewBox="0 0 20 20" fill="none" xmlns="http://www.w3.org/2000/svg">
<path d="M17.4512 6.82399C17.9346 7.30171 18.1426 7.9032 18.2398 8.61758C18.3334 9.30566 18.3334 10.1805 18.3334 11.2659V11.353C18.3334 12.4384 18.3334 13.3133 18.2398 14.0014C18.1426 14.7157 17.9346 15.3172 17.4512 15.7949C16.9677 16.2727 16.359 16.4781 15.636 16.5742C14.9397 16.6667 14.0543 16.6667 12.9558 16.6667H8.85169C7.75324 16.6667 6.86786 16.6667 6.17152 16.5742C5.44855 16.4781 4.83983 16.2727 4.35637 15.7949C4.06307 15.5051 3.87115 15.1698 3.74386 14.7913C4.47008 14.8811 5.36852 14.8811 6.40657 14.881H10.5812C11.6492 14.8811 12.5695 14.8811 13.3064 14.7832C14.0962 14.6783 14.8532 14.4417 15.4672 13.835C16.0813 13.2282 16.3207 12.4802 16.4269 11.6998C16.526 10.9716 16.5259 10.0623 16.5259 9.00698V8.85024C16.5259 7.82425 16.526 6.93629 16.4349 6.21861C16.8182 6.34439 17.1577 6.53406 17.4512 6.82399Z" fill="#FEF3F2"/>
<path d="M8.49388 7.5397C7.71759 7.5397 7.08828 8.16153 7.08828 8.9286C7.08828 9.69567 7.71759 10.3175 8.49388 10.3175C9.27017 10.3175 9.89948 9.69567 9.89948 8.9286C9.89948 8.16153 9.27017 7.5397 8.49388 7.5397Z" fill="#FEF3F2"/>
<path fill-rule="evenodd" clip-rule="evenodd" d="M2.37244 4.86403C1.66669 5.5614 1.66669 6.6838 1.66669 8.9286C1.66669 11.1734 1.66669 12.2958 2.37244 12.9932C3.0782 13.6905 4.21409 13.6905 6.48588 13.6905H10.5019C12.7737 13.6905 13.9096 13.6905 14.6153 12.9932C15.3211 12.2958 15.3211 11.1734 15.3211 8.9286C15.3211 6.6838 15.3211 5.5614 14.6153 4.86403C13.9096 4.16666 12.7737 4.16666 10.5019 4.16666H6.48588C4.21409 4.16666 3.0782 4.16666 2.37244 4.86403ZM5.88348 8.9286C5.88348 7.50405 7.0522 6.34921 8.49388 6.34921C9.93556 6.34921 11.1043 7.50405 11.1043 8.9286C11.1043 10.3532 9.93556 11.508 8.49388 11.508C7.0522 11.508 5.88348 10.3532 5.88348 8.9286ZM12.9115 11.1112C12.5788 11.1112 12.3091 10.8447 12.3091 10.5159V7.34129C12.3091 7.01254 12.5788 6.74604 12.9115 6.74604C13.2442 6.74604 13.5139 7.01254 13.5139 7.34129V10.5159C13.5139 10.8447 13.2442 11.1112 12.9115 11.1112ZM3.47388 10.5159C3.47388 10.8447 3.74359 11.1112 4.07628 11.1112C4.40898 11.1112 4.67868 10.8447 4.67868 10.5159L4.67868 7.34129C4.67868 7.01254 4.40898 6.74604 4.07628 6.74604C3.74359 6.74604 3.47388 7.01254 3.47388 7.34129L3.47388 10.5159Z" fill="#FEF3F2"/>
</svg>
