<svg width="20" height="20" viewBox="0 0 20 20" fill="none" xmlns="http://www.w3.org/2000/svg">
<circle cx="7.49999" cy="7.50001" r="1.66667" stroke="white" stroke-width="1.5"/>
<path d="M10.8333 12.5C10.8333 13.4205 10.8333 14.1667 7.50001 14.1667C4.16667 14.1667 4.16667 13.4205 4.16667 12.5C4.16667 11.5795 5.65906 10.8333 7.50001 10.8333C9.34095 10.8333 10.8333 11.5795 10.8333 12.5Z" stroke="white" stroke-width="1.5"/>
<path d="M1.66667 10C1.66667 6.85731 1.66667 5.28596 2.64298 4.30965C3.61929 3.33334 5.19064 3.33334 8.33334 3.33334H11.6667C14.8094 3.33334 16.3807 3.33334 17.357 4.30965C18.3333 5.28596 18.3333 6.85731 18.3333 10C18.3333 13.1427 18.3333 14.7141 17.357 15.6904C16.3807 16.6667 14.8094 16.6667 11.6667 16.6667H8.33334C5.19064 16.6667 3.61929 16.6667 2.64298 15.6904C1.66667 14.7141 1.66667 13.1427 1.66667 10Z" stroke="white" stroke-width="1.5"/>
<path d="M15.8333 10H12.5" stroke="white" stroke-width="1.5" stroke-linecap="round"/>
<path d="M15.8333 7.5H11.6667" stroke="white" stroke-width="1.5" stroke-linecap="round"/>
<path d="M15.8333 12.5H13.3333" stroke="white" stroke-width="1.5" stroke-linecap="round"/>
</svg>
