<svg width="20" height="20" viewBox="0 0 20 20" fill="none" xmlns="http://www.w3.org/2000/svg">
<path d="M8.90548 5.39926L8.36464 4.43015C7.62762 3.10954 5.77561 2.95358 4.61482 4.11437C3.91732 4.81187 3.37458 5.66634 3.33877 6.61092C3.27849 8.20103 3.68092 10.9014 6.38973 13.6103C9.09855 16.3191 11.799 16.7215 13.3891 16.6612C14.3336 16.6254 15.1881 16.0827 15.8856 15.3852C17.0464 14.2244 16.8904 12.3724 15.5698 11.6354L14.6007 11.0945C13.7262 10.6064 12.5789 10.8024 11.8102 11.571C11.8102 11.5711 11.8102 11.5711 11.8101 11.5711C11.8093 11.5719 10.8769 12.5028 9.18708 10.8129C7.49657 9.1224 8.42878 8.18996 8.4289 8.18985C8.42891 8.18984 8.4289 8.18984 8.42891 8.18984C9.19763 7.42111 9.39357 6.27383 8.90548 5.39926Z" fill="#D1D1D1"/>
</svg>
