<svg width="20" height="20" viewBox="0 0 20 20" fill="none" xmlns="http://www.w3.org/2000/svg">
<g clip-path="url(#clip0_2_168)">
<path d="M4.16667 6.66666C4.16667 4.30963 4.16667 3.13112 4.8989 2.39889C5.63114 1.66666 6.80965 1.66666 9.16667 1.66666H10.8333C13.1904 1.66666 14.3689 1.66666 15.1011 2.39889C15.8333 3.13112 15.8333 4.30963 15.8333 6.66666V13.3333C15.8333 15.6903 15.8333 16.8689 15.1011 17.6011C14.3689 18.3333 13.1904 18.3333 10.8333 18.3333H9.16667C6.80965 18.3333 5.63114 18.3333 4.8989 17.6011C4.16667 16.8689 4.16667 15.6903 4.16667 13.3333V6.66666Z" stroke="white" stroke-width="1.5"/>
<path d="M4.16667 3.39682C3.3541 3.47675 2.80714 3.65738 2.3989 4.06562C1.66667 4.79785 1.66667 5.97636 1.66667 8.33339V11.6667C1.66667 14.0237 1.66667 15.2023 2.3989 15.9345C2.80714 16.3427 3.3541 16.5234 4.16667 16.6033" stroke="white" stroke-width="1.5"/>
<path d="M15.8333 3.39682C16.6459 3.47675 17.1929 3.65738 17.6011 4.06562C18.3333 4.79785 18.3333 5.97636 18.3333 8.33339V11.6667C18.3333 14.0237 18.3333 15.2023 17.6011 15.9345C17.1929 16.3427 16.6459 16.5234 15.8333 16.6033" stroke="white" stroke-width="1.5"/>
<path d="M7.5 10.8333H12.5" stroke="white" stroke-width="1.5" stroke-linecap="round"/>
<path d="M7.5 7.5H12.5" stroke="white" stroke-width="1.5" stroke-linecap="round"/>
<path d="M7.5 14.1667H10" stroke="white" stroke-width="1.5" stroke-linecap="round"/>
</g>
<defs>
<clipPath id="clip0_2_168">
<rect width="20" height="20" rx="5" fill="white"/>
</clipPath>
</defs>
</svg>
