<svg width="18" height="17" viewBox="0 0 18 17" fill="none" xmlns="http://www.w3.org/2000/svg">
<path fill-rule="evenodd" clip-rule="evenodd" d="M16.113 15.6129C17.3334 14.3925 17.3334 12.4283 17.3334 8.49996C17.3334 8.21541 17.3334 8.07313 17.3208 7.92846C17.2619 7.25403 16.9884 6.59377 16.5532 6.07524C16.4598 5.96401 16.3567 5.86093 16.1505 5.65477L11.8453 1.34949C11.6391 1.14334 11.536 1.04025 11.4248 0.946886C10.9063 0.511623 10.246 0.238131 9.57158 0.179255C9.42691 0.166626 9.28463 0.166626 9.00008 0.166626C5.07171 0.166626 3.10752 0.166626 1.88714 1.38701C0.666748 2.6074 0.666748 4.57159 0.666748 8.49996C0.666748 12.4283 0.666748 14.3925 1.88714 15.6129C2.45717 16.1829 3.18947 16.4867 4.20841 16.6486L4.20841 15.9566C4.20839 15.2079 4.20837 14.5835 4.27501 14.0879C4.34535 13.5647 4.50007 13.0924 4.87963 12.7128C5.25919 12.3333 5.73152 12.1786 6.25468 12.1082C6.75033 12.0416 7.37468 12.0416 8.12341 12.0416H9.87675C10.6255 12.0416 11.2498 12.0416 11.7455 12.1082C12.2686 12.1786 12.741 12.3333 13.1205 12.7128C13.5001 13.0924 13.6548 13.5647 13.7252 14.0879C13.7918 14.5835 13.7918 15.2079 13.7917 15.9566V16.6486C14.8107 16.4867 15.543 16.1829 16.113 15.6129ZM4.20841 5.16663C4.20841 4.82145 4.48824 4.54163 4.83341 4.54163H9.83341C10.1786 4.54163 10.4584 4.82145 10.4584 5.16663C10.4584 5.5118 10.1786 5.79163 9.83341 5.79163H4.83341C4.48824 5.79163 4.20841 5.5118 4.20841 5.16663Z" fill="white"/>
<path d="M12.4863 14.2545C12.5404 14.657 12.5417 15.1966 12.5417 16V16.776C11.5786 16.8333 10.4171 16.8333 9.00008 16.8333C7.58304 16.8333 6.42158 16.8333 5.45842 16.776V16C5.45842 15.1966 5.45974 14.657 5.51386 14.2545C5.56556 13.8699 5.65491 13.7053 5.76351 13.5967C5.87211 13.4881 6.03669 13.3988 6.42124 13.3471C6.82377 13.293 7.36341 13.2916 8.16675 13.2916H9.83341C10.6368 13.2916 11.1764 13.293 11.5789 13.3471C11.9635 13.3988 12.1281 13.4881 12.2367 13.5967C12.3452 13.7053 12.4346 13.8699 12.4863 14.2545Z" fill="white"/>
</svg>
