<svg width="16" height="16" viewBox="0 0 16 16" fill="none" xmlns="http://www.w3.org/2000/svg">
<path d="M2 4.25732C2 3.93435 2.23025 3.67253 2.51429 3.67253L4.29045 3.67221C4.64335 3.66205 4.95468 3.40689 5.07476 3.02941C5.07792 3.01949 5.08155 3.00725 5.09457 2.96283L5.1711 2.70171C5.21793 2.54161 5.25874 2.40213 5.31583 2.27745C5.54139 1.78491 5.95872 1.44288 6.44098 1.35531C6.56305 1.33315 6.69232 1.33324 6.84071 1.33335H9.15941C9.30779 1.33324 9.43707 1.33315 9.55914 1.35531C10.0414 1.44288 10.4587 1.78491 10.6843 2.27745C10.7414 2.40213 10.7822 2.54161 10.829 2.70171L10.9055 2.96283C10.9186 3.00725 10.9222 3.01949 10.9254 3.02941C11.0454 3.40689 11.4185 3.66236 11.7714 3.67253H13.4857C13.7697 3.67253 14 3.93435 14 4.25732C14 4.58029 13.7697 4.84211 13.4857 4.84211H2.51429C2.23025 4.84211 2 4.58029 2 4.25732Z" fill="#E94A4A"/>
<path fill-rule="evenodd" clip-rule="evenodd" d="M7.7304 14.6668H8.2696C10.1247 14.6668 11.0523 14.6668 11.6554 14.0761C12.2585 13.4855 12.3202 12.5167 12.4436 10.5791L12.6214 7.78716C12.6884 6.73583 12.7219 6.21016 12.4193 5.87706C12.1167 5.54395 11.6058 5.54395 10.584 5.54395H5.41603C4.39418 5.54395 3.88325 5.54395 3.5807 5.87706C3.27815 6.21016 3.31163 6.73583 3.37858 7.78716L3.55639 10.5791C3.6798 12.5167 3.7415 13.4855 4.34459 14.0761C4.94769 14.6668 5.87526 14.6668 7.7304 14.6668ZM6.83085 8.12574C6.80337 7.83651 6.55835 7.62548 6.28358 7.65441C6.00881 7.68333 5.80834 7.94125 5.83581 8.23048L6.16915 11.7393C6.19662 12.0285 6.44165 12.2395 6.71642 12.2106C6.99119 12.1817 7.19166 11.9237 7.16419 11.6345L6.83085 8.12574ZM9.71642 7.65441C9.99119 7.68333 10.1917 7.94125 10.1642 8.23048L9.83085 11.7393C9.80338 12.0285 9.55835 12.2395 9.28358 12.2106C9.00881 12.1817 8.80834 11.9237 8.83581 11.6345L9.16915 8.12574C9.19663 7.83651 9.44165 7.62548 9.71642 7.65441Z" fill="#E94A4A"/>
</svg>
