<svg width="20" height="20" viewBox="0 0 20 20" fill="none" xmlns="http://www.w3.org/2000/svg">
<path d="M17.9861 6.16418C17.2979 4.50237 15.6603 3.33333 13.7497 3.33333C11.8391 3.33333 10.2016 4.50237 9.51335 6.16418" stroke="white" stroke-width="1.5" stroke-linecap="round"/>
<path d="M16.1505 7.21509C15.8473 6.1759 14.8875 5.41667 13.7503 5.41667C12.6132 5.41667 11.6533 6.1759 11.3501 7.21509" stroke="white" stroke-width="1.5" stroke-linecap="round"/>
<path d="M5.83334 13.3333C5.83334 13.7936 5.46024 14.1667 5.00001 14.1667C4.53977 14.1667 4.16667 13.7936 4.16667 13.3333C4.16667 12.8731 4.53977 12.5 5.00001 12.5C5.46024 12.5 5.83334 12.8731 5.83334 13.3333Z" fill="white"/>
<path d="M8.33334 13.3333C8.33334 13.7936 7.96024 14.1667 7.50001 14.1667C7.03977 14.1667 6.66667 13.7936 6.66667 13.3333C6.66667 12.8731 7.03977 12.5 7.50001 12.5C7.96024 12.5 8.33334 12.8731 8.33334 13.3333Z" fill="white"/>
<path d="M1.66667 13.3333C1.66667 11.762 1.66667 10.9763 2.15483 10.4882C2.64298 10 3.42866 10 5.00001 10H15C16.5714 10 17.357 10 17.8452 10.4882C18.3333 10.9763 18.3333 11.762 18.3333 13.3333C18.3333 14.9047 18.3333 15.6904 17.8452 16.1785C17.357 16.6667 16.5714 16.6667 15 16.6667H5C3.42866 16.6667 2.64298 16.6667 2.15483 16.1785C1.66667 15.6904 1.66667 14.9047 1.66667 13.3333Z" stroke="white" stroke-width="1.5"/>
<path d="M13.75 10L13.75 7.5" stroke="white" stroke-width="1.5" stroke-linecap="round"/>
</svg>
