<svg width="41" height="40" viewBox="0 0 41 40" fill="none" xmlns="http://www.w3.org/2000/svg">
<rect x="0.333344" width="40" height="40" rx="20" fill="#D6F3FF"/>
<path d="M20.4243 16.195C21.0191 14.7586 22.4341 13.75 24.0832 13.75C25.7323 13.75 27.1473 14.7586 27.7421 16.195C27.8742 16.5139 28.2398 16.6654 28.5587 16.5333C28.8776 16.4012 29.0291 16.0356 28.897 15.7167C28.1154 13.8295 26.2553 12.5 24.0832 12.5C21.9111 12.5 20.051 13.8295 19.2694 15.7167C19.1373 16.0356 19.2888 16.4012 19.6077 16.5333C19.9266 16.6654 20.2922 16.5139 20.4243 16.195Z" fill="#0084FF"/>
<path fill-rule="evenodd" clip-rule="evenodd" d="M12.4882 20.2798C12 20.768 12 21.5537 12 23.125C12 24.6963 12 25.482 12.4882 25.9702C12.9763 26.4583 13.762 26.4583 15.3333 26.4583H25.3333C26.9047 26.4583 27.6904 26.4583 28.1785 25.9702C28.6667 25.482 28.6667 24.6963 28.6667 23.125C28.6667 21.5537 28.6667 20.768 28.1785 20.2798C27.6904 19.7917 26.9047 19.7917 25.3333 19.7917H24.7083V17.2917C24.7083 16.9465 24.4285 16.6667 24.0833 16.6667C23.7382 16.6667 23.4583 16.9465 23.4583 17.2917V19.7917H15.3333C13.762 19.7917 12.9763 19.7917 12.4882 20.2798ZM15.3333 23.9583C15.7936 23.9583 16.1667 23.5852 16.1667 23.125C16.1667 22.6648 15.7936 22.2917 15.3333 22.2917C14.8731 22.2917 14.5 22.6648 14.5 23.125C14.5 23.5852 14.8731 23.9583 15.3333 23.9583ZM17.8333 23.9583C18.2936 23.9583 18.6667 23.5852 18.6667 23.125C18.6667 22.6648 18.2936 22.2917 17.8333 22.2917C17.3731 22.2917 17 22.6648 17 23.125C17 23.5852 17.3731 23.9583 17.8333 23.9583Z" fill="#0084FF"/>
<path d="M22.2836 17.1818C22.5111 16.402 23.2319 15.8333 24.0838 15.8333C24.9358 15.8333 25.6565 16.402 25.8841 17.1818C25.9807 17.5132 26.3277 17.7034 26.6591 17.6067C26.9905 17.51 27.1807 17.163 27.084 16.8317C26.7051 15.5331 25.5062 14.5833 24.0838 14.5833C22.6615 14.5833 21.4626 15.5331 21.0836 16.8317C20.9869 17.163 21.1772 17.51 21.5085 17.6067C21.8399 17.7034 22.1869 17.5132 22.2836 17.1818Z" fill="#0084FF"/>
</svg>
