<svg width="21" height="20" viewBox="0 0 21 20" fill="none" xmlns="http://www.w3.org/2000/svg">
<path fill-rule="evenodd" clip-rule="evenodd" d="M2.76598 6.51895C2.33331 7.3094 2.33331 8.26291 2.33331 10.1699V11.4375C2.33331 14.6882 2.33331 16.3136 3.30962 17.3235C4.28593 18.3333 5.85728 18.3333 8.99998 18.3333H12.3333C15.476 18.3333 17.0474 18.3333 18.0237 17.3235C19 16.3136 19 14.6882 19 11.4375V10.1699C19 8.26291 19 7.3094 18.5673 6.51895C18.1346 5.72851 17.3442 5.23793 15.7633 4.25677L14.0966 3.22239C12.4255 2.18524 11.5899 1.66667 10.6666 1.66667C9.74337 1.66667 8.9078 2.18524 7.23667 3.22239L5.57001 4.25677C3.9891 5.23793 3.19865 5.72851 2.76598 6.51895ZM8.16665 14.375C7.82147 14.375 7.54165 14.6548 7.54165 15C7.54165 15.3452 7.82147 15.625 8.16665 15.625H13.1666C13.5118 15.625 13.7916 15.3452 13.7916 15C13.7916 14.6548 13.5118 14.375 13.1666 14.375H8.16665Z" fill="#AE00FF"/>
</svg>
