<svg width="13" height="12" viewBox="0 0 13 12" fill="none" xmlns="http://www.w3.org/2000/svg">
<path d="M6.55457 3.71699C6.91149 2.85516 7.76048 2.25 8.74992 2.25C9.73937 2.25 10.5884 2.85516 10.9453 3.71699C11.0245 3.90834 11.2439 3.99922 11.4352 3.91997C11.6266 3.84073 11.7174 3.62137 11.6382 3.43003C11.1693 2.2977 10.0532 1.5 8.74992 1.5C7.44665 1.5 6.33058 2.2977 5.86164 3.43003C5.7824 3.62137 5.87328 3.84073 6.06462 3.91997C6.25597 3.99922 6.47533 3.90834 6.55457 3.71699Z" fill="#0084FF"/>
<path fill-rule="evenodd" clip-rule="evenodd" d="M1.79289 6.16789C1.5 6.46079 1.5 6.93219 1.5 7.875C1.5 8.81781 1.5 9.28921 1.79289 9.58211C2.08579 9.875 2.55719 9.875 3.5 9.875H9.5C10.4428 9.875 10.9142 9.875 11.2071 9.58211C11.5 9.28921 11.5 8.81781 11.5 7.875C11.5 6.93219 11.5 6.46079 11.2071 6.16789C10.9142 5.875 10.4428 5.875 9.5 5.875H9.125V4.375C9.125 4.16789 8.95711 4 8.75 4C8.54289 4 8.375 4.16789 8.375 4.375V5.875H3.5C2.55719 5.875 2.08579 5.875 1.79289 6.16789ZM3.5 8.375C3.77614 8.375 4 8.15114 4 7.875C4 7.59886 3.77614 7.375 3.5 7.375C3.22386 7.375 3 7.59886 3 7.875C3 8.15114 3.22386 8.375 3.5 8.375ZM5 8.375C5.27614 8.375 5.5 8.15114 5.5 7.875C5.5 7.59886 5.27614 7.375 5 7.375C4.72386 7.375 4.5 7.59886 4.5 7.875C4.5 8.15114 4.72386 8.375 5 8.375Z" fill="#0084FF"/>
<path d="M7.67014 4.3091C7.80667 3.84122 8.23912 3.5 8.75029 3.5C9.26145 3.5 9.6939 3.84122 9.83043 4.3091C9.88845 4.50792 10.0967 4.62206 10.2955 4.56404C10.4943 4.50602 10.6084 4.29782 10.5504 4.09901C10.323 3.31985 9.6037 2.75 8.75029 2.75C7.89688 2.75 7.17754 3.31985 6.95017 4.09901C6.89215 4.29782 7.00629 4.50602 7.20511 4.56404C7.40392 4.62206 7.61213 4.50792 7.67014 4.3091Z" fill="#0084FF"/>
</svg>
